0
SECTION
2
HEADER
9
$INSUNITS
70
4
9
$ACADVER
1
AC1014
9
$HANDSEED
5
FFFF
0
ENDSEC
0
SECTION
2
TABLES
0
TABLE
2
VPORT
5
8
100
AcDbSymbolTable
0
ENDTAB
0
TABLE
2
LTYPE
5
5
100
AcDbSymbolTable
0
LTYPE
5
14
100
AcDbSymbolTableRecord
100
AcDbLinetypeTableRecord
2
BYBLOCK
70
0
0
LTYPE
5
15
100
AcDbSymbolTableRecord
100
AcDbLinetypeTableRecord
2
BYLAYER
70
0
0
ENDTAB
0
TABLE
2
LAYER
5
2
100
AcDbSymbolTable
70
2
0
LAYER
5
50
100
AcDbSymbolTableRecord
100
AcDbLayerTableRecord
2
0
70
0
6
CONTINUOUS
0
ENDTAB
0
TABLE
2
STYLE
5
3
100
AcDbSymbolTable
70
1
0
STYLE
5
11
100
AcDbSymbolTableRecord
100
AcDbTextStyleTableRecord
2
STANDARD
70
0
0
ENDTAB
0
TABLE
2
VIEW
5
6
100
AcDbSymbolTable
70
0
0
ENDTAB
0
TABLE
2
UCS
5
7
100
AcDbSymbolTable
70
0
0
ENDTAB
0
TABLE
2
APPID
5
9
100
AcDbSymbolTable
70
2
0
APPID
5
12
100
AcDbSymbolTableRecord
100
AcDbRegAppTableRecord
2
ACAD
70
0
0
ENDTAB
0
TABLE
2
DIMSTYLE
5
A
100
AcDbSymbolTable
70
1
0
ENDTAB
0
TABLE
2
BLOCK_RECORD
5
1
100
AcDbSymbolTable
70
1
0
BLOCK_RECORD
5
1F
100
AcDbSymbolTableRecord
100
AcDbBlockTableRecord
2
*MODEL_SPACE
0
BLOCK_RECORD
5
1B
100
AcDbSymbolTableRecord
100
AcDbBlockTableRecord
2
*PAPER_SPACE
0
ENDTAB
0
ENDSEC
0
SECTION
2
BLOCKS
0
BLOCK
5
20
100
AcDbEntity
100
AcDbBlockBegin
2
*MODEL_SPACE
0
ENDBLK
5
21
100
AcDbEntity
100
AcDbBlockEnd
0
BLOCK
5
1C
100
AcDbEntity
100
AcDbBlockBegin
2
*PAPER_SPACE
0
ENDBLK
5
1D
100
AcDbEntity
100
AcDbBlockEnd
0
ENDSEC
0
SECTION
2
ENTITIES
0
LWPOLYLINE
5
100
100
AcDbEntity
8
0
100
AcDbPolyline
90
60
70
1
43
0.0
10
-89.500000923871994
20
-94.307500000000005
10
-89.500000923871994
20
-96.167073006379283
42
-0.41421356237306445
10
-89.840000923871997
20
-96.507073006379301
10
-105.50000092387199
20
-96.507073006379301
42
0.41421356237309503
10
-107.00000092387199
20
-98.007073006379301
10
-107.00000092387199
20
-99.007073006379301
42
0.41421356237308815
10
-105.50000092387199
20
-100.5070730063793
10
-18.500000923871998
20
-100.5070730063793
42
0.41421356237308898
10
-17.00000092387199
20
-99.007073006379301
10
-17.000000923871994
20
-98.007073006379301
42
0.41421356237309331
10
-18.500000923871994
20
-96.507073006379301
10
-34.160000923871998
20
-96.507073006379315
42
-0.41421356237307588
10
-34.500000923871994
20
-96.167073006379283
10
-34.500000923871994
20
-94.307500000000005
10
-5.0950845999999927
20
-94.307500000000005
10
-5.0950845999999927
20
-1.4576929999999955
10
-34.500000923871994
20
-1.4576930000000032
10
-34.500000923872001
20
0.40188000637929377
42
-0.41421356237307588
10
-34.160000923871998
20
0.7418800063793185
10
-18.500000923871994
20
0.74188000637930074
42
0.41421356237309331
10
-17.000000923871998
20
2.2418800063793047
10
-17.000000923871994
20
3.2418800063793007
42
0.41421356237308898
10
-18.500000923871998
20
4.7418800063792999
10
-105.50000092387199
20
4.7418800063793043
42
0.41421356237308815
10
-107.00000092387199
20
3.2418800063793007
10
-107.00000092387199
20
2.2418800063793043
42
0.41421356237309503
10
-105.50000092387199
20
0.74188000637930074
10
-89.840000923871997
20
0.74188000637930074
42
-0.4142135623730645
10
-89.500000923871994
20
0.40188000637929372
10
-89.500000923871994
20
-1.4576930000000032
10
-268.35308367612805
20
-1.4576930000000032
10
-268.35308367612805
20
0.40188000637929377
42
-0.41421356237304913
10
-268.01308367612808
20
0.74188000637930074
10
-252.35308367612802
20
0.74188000637930074
42
0.41421356237309503
10
-250.85308367612805
20
2.2418800063793043
10
-250.85308367612805
20
3.2418800063793007
42
0.4142135623730846
10
-252.35308367612802
20
4.7418800063793043
10
-339.35308367612805
20
4.7418800063793043
42
0.41421356237309159
10
-340.85308367612811
20
3.2418800063793007
10
-340.85308367612805
20
2.2418800063793043
42
0.41421356237309503
10
-339.35308367612805
20
0.7418800063793185
10
-323.69308367612803
20
0.74188000637928297
42
-0.41421356237309509
10
-323.35308367612805
20
0.40188000637929372
10
-323.35308367612805
20
-1.4576930000000032
10
-352.75800000000004
20
-1.4576930000000032
10
-352.75800000000004
20
-94.307500000000005
10
-323.35308367612805
20
-94.307500000000005
10
-323.35308367612799
20
-96.167073006379283
42
-0.41421356237309503
10
-323.69308367612803
20
-96.507073006379315
10
-339.35308367612805
20
-96.507073006379301
42
0.41421356237309503
10
-340.85308367612805
20
-98.007073006379301
10
-340.85308367612805
20
-99.007073006379301
42
0.41421356237309159
10
-339.35308367612805
20
-100.50707300637926
10
-252.35308367612802
20
-100.5070730063793
42
0.4142135623730846
10
-250.85308367612805
20
-99.007073006379301
10
-250.85308367612805
20
-98.007073006379301
42
0.41421356237309503
10
-252.35308367612802
20
-96.507073006379315
10
-268.01308367612808
20
-96.507073006379301
42
-0.41421356237304913
10
-268.35308367612805
20
-96.167073006379283
10
-268.35308367612805
20
-94.307500000000005
0
LWPOLYLINE
5
101
100
AcDbEntity
8
0
100
AcDbPolyline
90
6
70
1
43
0.0
10
-313.35308367612805
20
-96.167073006379283
10
-313.35308367612805
20
-94.307500000000005
10
-278.35308367612805
20
-94.307500000000005
10
-278.35308367612805
20
-96.167073006379283
42
-0.41421356237306445
10
-278.69308367612803
20
-96.507073006379301
10
-313.01308367612808
20
-96.507073006379315
42
-0.41421356237306445
0
LWPOLYLINE
5
102
100
AcDbEntity
8
0
100
AcDbPolyline
90
6
70
1
43
0.0
10
-79.500000923871994
20
-96.167073006379283
10
-79.500000923871994
20
-94.307500000000005
10
-44.500000923871994
20
-94.307500000000005
10
-44.500000923872001
20
-96.167073006379283
42
-0.41421356237307977
10
-44.84000092387199
20
-96.507073006379301
10
-79.160000923871991
20
-96.507073006379301
42
-0.41421356237307977
0
LWPOLYLINE
5
103
100
AcDbEntity
8
0
100
AcDbPolyline
90
4
70
1
43
0.0
10
-245.45699999999999
20
-59.933800000000005
10
-231.45700000000002
20
-59.933800000000005
10
-231.45700000000002
20
-73.933099999999996
10
-245.45699999999999
20
-73.933099999999996
0
LWPOLYLINE
5
104
100
AcDbEntity
8
0
100
AcDbPolyline
90
4
70
1
43
0.0
10
-212.40700000000004
20
-59.933800000000005
10
-212.40700000000004
20
-73.933099999999996
10
-226.40700000000004
20
-73.933099999999996
10
-226.40700000000004
20
-59.933800000000005
0
LWPOLYLINE
5
105
100
AcDbEntity
8
0
100
AcDbPolyline
90
4
70
1
43
0.0
10
-150.20699999999999
20
-73.933099999999996
10
-150.20699999999999
20
-59.933800000000005
10
-136.20699999999999
20
-59.933800000000005
10
-136.20699999999999
20
-73.933099999999996
0
LWPOLYLINE
5
106
100
AcDbEntity
8
0
100
AcDbPolyline
90
4
70
1
43
0.0
10
-98.107200000000034
20
-73.933099999999996
10
-112.10700000000003
20
-73.933099999999996
10
-112.10700000000003
20
-59.933800000000005
10
-98.107200000000034
20
-59.933800000000005
0
LWPOLYLINE
5
107
100
AcDbEntity
8
0
100
AcDbPolyline
90
4
70
1
43
0.0
10
-169.25700000000003
20
-59.933800000000005
10
-155.25700000000001
20
-59.933800000000005
10
-155.25700000000001
20
-73.933099999999996
10
-169.25700000000003
20
-73.933099999999996
0
LWPOLYLINE
5
108
100
AcDbEntity
8
0
100
AcDbPolyline
90
4
70
1
43
0.0
10
-93.0565
20
-73.933099999999996
10
-93.0565
20
-59.933800000000005
10
-79.057199999999995
20
-59.933800000000005
10
-79.057199999999995
20
-73.933099999999996
0
LWPOLYLINE
5
109
100
AcDbEntity
8
0
100
AcDbPolyline
90
4
70
1
43
0.0
10
-350.23199999999997
20
-54.883099999999999
10
-350.23199999999997
20
-40.883800000000001
10
-336.23199999999997
20
-40.883800000000001
10
-336.23199999999997
20
-54.883099999999999
0
LWPOLYLINE
5
110
100
AcDbEntity
8
0
100
AcDbPolyline
90
4
70
1
43
0.0
10
-131.15700000000004
20
-59.933800000000005
10
-117.15700000000001
20
-59.933800000000005
10
-117.15700000000001
20
-73.933099999999996
10
-131.15700000000004
20
-73.933099999999996
0
LWPOLYLINE
5
111
100
AcDbEntity
8
0
100
AcDbPolyline
90
4
70
1
43
0.0
10
-336.23199999999997
20
-92.983099999999993
10
-350.23199999999997
20
-92.983099999999993
10
-350.23199999999997
20
-78.983800000000002
10
-336.23199999999997
20
-78.983800000000002
0
LWPOLYLINE
5
112
100
AcDbEntity
8
0
100
AcDbPolyline
90
4
70
1
43
0.0
10
-174.30700000000002
20
-73.933099999999996
10
-188.30700000000004
20
-73.933099999999996
10
-188.30700000000004
20
-59.933800000000005
10
-174.30700000000002
20
-59.933800000000005
0
LWPOLYLINE
5
113
100
AcDbEntity
8
0
100
AcDbPolyline
90
4
70
1
43
0.0
10
-193.357
20
-73.933099999999996
10
-207.35700000000003
20
-73.933099999999996
10
-207.35700000000003
20
-59.933800000000005
10
-193.357
20
-59.933800000000005
0
LWPOLYLINE
5
114
100
AcDbEntity
8
0
100
AcDbPolyline
90
4
70
1
43
0.0
10
-288.31900000000007
20
-54.883099999999999
10
-288.31900000000007
20
-40.883800000000001
10
-274.32000000000005
20
-40.883800000000001
10
-274.32000000000005
20
-54.883099999999999
0
LWPOLYLINE
5
115
100
AcDbEntity
8
0
100
AcDbPolyline
90
4
70
1
43
0.0
10
-21.619200000000021
20
-73.933099999999996
10
-21.619200000000021
20
-59.933800000000005
10
-7.6196499999999645
20
-59.933800000000005
10
-7.6196499999999645
20
-73.933099999999996
0
LWPOLYLINE
5
116
100
AcDbEntity
8
0
100
AcDbPolyline
90
4
70
1
43
0.0
10
-69.243999999999986
20
-59.933800000000005
10
-55.244700000000009
20
-59.933800000000005
10
-55.244700000000009
20
-73.933099999999996
10
-69.243999999999986
20
-73.933099999999996
0
LWPOLYLINE
5
117
100
AcDbEntity
8
0
100
AcDbPolyline
90
4
70
1
43
0.0
10
-40.669000000000004
20
-73.933099999999996
10
-40.669000000000004
20
-59.933800000000005
10
-26.669699999999992
20
-59.933800000000005
10
-26.669699999999992
20
-73.933099999999996
0
LWPOLYLINE
5
118
100
AcDbEntity
8
0
100
AcDbPolyline
90
4
70
1
43
0.0
10
-269.26900000000001
20
-40.883800000000001
10
-255.27000000000001
20
-40.883800000000001
10
-255.27000000000001
20
-54.883099999999999
10
-269.26900000000001
20
-54.883099999999999
0
LWPOLYLINE
5
119
100
AcDbEntity
8
0
100
AcDbPolyline
90
4
70
1
43
0.0
10
-7.6196499999999645
20
-92.983099999999993
10
-21.619200000000021
20
-92.983099999999993
10
-21.619200000000021
20
-78.983800000000002
10
-7.6196499999999645
20
-78.983800000000002
0
LWPOLYLINE
5
120
100
AcDbEntity
8
0
100
AcDbPolyline
90
4
70
1
43
0.0
10
-250.50700000000003
20
-73.933099999999996
10
-264.50700000000001
20
-73.933099999999996
10
-264.50700000000001
20
-59.933800000000005
10
-250.50700000000003
20
-59.933800000000005
0
LWPOLYLINE
5
121
100
AcDbEntity
8
0
100
AcDbPolyline
90
4
70
1
43
0.0
10
-26.669699999999992
20
-92.983099999999993
10
-40.669000000000004
20
-92.983099999999993
10
-40.669000000000004
20
-78.983800000000002
10
-26.669699999999992
20
-78.983800000000002
0
LWPOLYLINE
5
122
100
AcDbEntity
8
0
100
AcDbPolyline
90
4
70
1
43
0.0
10
-326.4190000000001
20
-73.933099999999996
10
-326.4190000000001
20
-59.933800000000005
10
-312.42000000000007
20
-59.933800000000005
10
-312.42000000000007
20
-73.933099999999996
0
LWPOLYLINE
5
123
100
AcDbEntity
8
0
100
AcDbPolyline
90
4
70
1
43
0.0
10
-40.669000000000004
20
-2.7836400000000028
10
-26.669699999999992
20
-2.7836399999999983
10
-26.669699999999992
20
-16.783100000000001
10
-40.669000000000004
20
-16.783100000000001
0
LWPOLYLINE
5
124
100
AcDbEntity
8
0
100
AcDbPolyline
90
4
70
1
43
0.0
10
-302.60700000000003
20
-73.933099999999996
10
-302.60700000000003
20
-59.933800000000005
10
-288.60700000000003
20
-59.933800000000005
10
-288.60700000000003
20
-73.933099999999996
0
LWPOLYLINE
5
125
100
AcDbEntity
8
0
100
AcDbPolyline
90
4
70
1
43
0.0
10
-7.6196499999999645
20
-2.7836399999999983
10
-7.6196499999999645
20
-16.783100000000001
10
-21.619200000000021
20
-16.783100000000001
10
-21.619200000000021
20
-2.7836400000000028
0
LWPOLYLINE
5
126
100
AcDbEntity
8
0
100
AcDbPolyline
90
4
70
1
43
0.0
10
-350.23199999999997
20
-59.933800000000005
10
-336.23199999999997
20
-59.933800000000005
10
-336.23199999999997
20
-73.933099999999996
10
-350.23199999999997
20
-73.933099999999996
0
LWPOLYLINE
5
127
100
AcDbEntity
8
0
100
AcDbPolyline
90
4
70
1
43
0.0
10
-254.982
20
-78.983800000000002
10
-240.98200000000003
20
-78.983800000000002
10
-240.98200000000003
20
-92.983099999999993
10
-254.982
20
-92.983099999999993
0
LWPOLYLINE
5
128
100
AcDbEntity
8
0
100
AcDbPolyline
90
4
70
1
43
0.0
10
-7.6196499999999645
20
-35.832999999999998
10
-21.619200000000021
20
-35.832999999999998
10
-21.619200000000021
20
-21.833600000000001
10
-7.6196499999999645
20
-21.833600000000001
0
LWPOLYLINE
5
129
100
AcDbEntity
8
0
100
AcDbPolyline
90
4
70
1
43
0.0
10
-283.55700000000002
20
-59.933800000000005
10
-269.55700000000002
20
-59.933800000000005
10
-269.55700000000002
20
-73.933099999999996
10
-283.55700000000002
20
-73.933099999999996
0
LWPOLYLINE
5
130
100
AcDbEntity
8
0
100
AcDbPolyline
90
4
70
1
43
0.0
10
-183.83199999999999
20
-92.983099999999993
10
-197.83199999999999
20
-92.983099999999993
10
-197.83199999999999
20
-78.983800000000002
10
-183.83199999999999
20
-78.983800000000002
0
LWPOLYLINE
5
131
100
AcDbEntity
8
0
100
AcDbPolyline
90
4
70
1
43
0.0
10
-26.669699999999992
20
-35.832999999999998
10
-40.669000000000004
20
-35.832999999999998
10
-40.669000000000004
20
-21.833600000000001
10
-26.669699999999992
20
-21.833600000000001
0
LWPOLYLINE
5
132
100
AcDbEntity
8
0
100
AcDbPolyline
90
4
70
1
43
0.0
10
-102.58150000000001
20
-78.983800000000002
10
-88.582200000000029
20
-78.983800000000002
10
-88.582200000000029
20
-92.983099999999993
10
-102.58150000000001
20
-92.983099999999993
0
LWPOLYLINE
5
133
100
AcDbEntity
8
0
100
AcDbPolyline
90
4
70
1
43
0.0
10
-145.732
20
-92.983099999999993
10
-159.73199999999997
20
-92.983099999999993
10
-159.73199999999997
20
-78.983800000000002
10
-145.732
20
-78.983800000000002
0
LWPOLYLINE
5
134
100
AcDbEntity
8
0
100
AcDbPolyline
90
4
70
1
43
0.0
10
-126.68199999999999
20
-78.983800000000002
10
-126.68199999999999
20
-92.983099999999993
10
-140.68200000000004
20
-92.983099999999993
10
-140.68200000000004
20
-78.983800000000002
0
LWPOLYLINE
5
135
100
AcDbEntity
8
0
100
AcDbPolyline
90
4
70
1
43
0.0
10
-26.669699999999992
20
-54.883099999999999
10
-40.669000000000004
20
-54.883099999999999
10
-40.669000000000004
20
-40.883800000000001
10
-26.669699999999992
20
-40.883800000000001
0
LWPOLYLINE
5
136
100
AcDbEntity
8
0
100
AcDbPolyline
90
4
70
1
43
0.0
10
-164.78200000000001
20
-92.983099999999993
10
-178.78200000000004
20
-92.983099999999993
10
-178.78200000000004
20
-78.983800000000002
10
-164.78200000000001
20
-78.983800000000002
0
LWPOLYLINE
5
137
100
AcDbEntity
8
0
100
AcDbPolyline
90
4
70
1
43
0.0
10
-69.532200000000017
20
-78.983800000000002
10
-69.532200000000017
20
-92.983099999999993
10
-83.531499999999994
20
-92.983099999999993
10
-83.531499999999994
20
-78.983800000000002
0
LWPOLYLINE
5
138
100
AcDbEntity
8
0
100
AcDbPolyline
90
4
70
1
43
0.0
10
-62.387100000000011
20
-21.833600000000001
10
-62.387100000000011
20
-35.832999999999998
10
-76.387799999999999
20
-35.832999999999998
10
-76.387799999999999
20
-21.833600000000001
0
LWPOLYLINE
5
139
100
AcDbEntity
8
0
100
AcDbPolyline
90
4
70
1
43
0.0
10
-21.619200000000021
20
-54.883099999999999
10
-21.619200000000021
20
-40.883800000000001
10
-7.6196499999999645
20
-40.883800000000001
10
-7.6196499999999645
20
-54.883099999999999
0
LWPOLYLINE
5
140
100
AcDbEntity
8
0
100
AcDbPolyline
90
4
70
1
43
0.0
10
-116.87049999999999
20
-2.7836400000000028
10
-102.87050000000001
20
-2.7836399999999983
10
-102.87050000000001
20
-16.783100000000001
10
-116.87049999999999
20
-16.783100000000001
0
LWPOLYLINE
5
141
100
AcDbEntity
8
0
100
AcDbPolyline
90
4
70
1
43
0.0
10
-183.83250000000001
20
-2.7836400000000028
10
-183.83250000000001
20
-16.783100000000001
10
-197.83150000000003
20
-16.783100000000001
10
-197.83150000000003
20
-2.7836400000000028
0
LWPOLYLINE
5
142
100
AcDbEntity
8
0
100
AcDbPolyline
90
4
70
1
43
0.0
10
-55.244700000000009
20
-2.7836399999999983
10
-55.244700000000009
20
-16.783100000000001
10
-69.243999999999986
20
-16.783100000000001
10
-69.243999999999986
20
-2.7836400000000028
0
LWPOLYLINE
5
143
100
AcDbEntity
8
0
100
AcDbPolyline
90
4
70
1
43
0.0
10
-129.48349999999999
20
-1.8134999999999968
10
-129.48349999999999
20
-17.753240000000005
10
-137.05849999999998
20
-17.753240000000005
10
-137.05849999999998
20
-1.8134999999999968
0
LWPOLYLINE
5
144
100
AcDbEntity
8
0
100
AcDbPolyline
90
4
70
1
43
0.0
10
-79.057099999999991
20
-16.783100000000001
10
-93.057799999999986
20
-16.783100000000001
10
-93.057799999999986
20
-2.7836400000000028
10
-79.057099999999991
20
-2.7836399999999983
0
LWPOLYLINE
5
145
100
AcDbEntity
8
0
100
AcDbPolyline
90
4
70
1
43
0.0
10
-244.60650000000004
20
-1.8134999999999968
10
-244.60650000000004
20
-17.753240000000005
10
-252.18150000000006
20
-17.753240000000005
10
-252.18150000000006
20
-1.8134999999999968
0
LWPOLYLINE
5
146
100
AcDbEntity
8
0
100
AcDbPolyline
90
4
70
1
43
0.0
10
-298.13200000000001
20
-16.783100000000001
10
-312.13200000000001
20
-16.783100000000001
10
-312.13200000000001
20
-2.7836400000000028
10
-298.13200000000001
20
-2.7836399999999983
0
LWPOLYLINE
5
147
100
AcDbEntity
8
0
100
AcDbPolyline
90
4
70
1
43
0.0
10
-53.288100000000007
20
-20.863499999999998
10
-53.288100000000007
20
-36.803100000000001
10
-60.86310000000001
20
-36.803100000000001
10
-60.86310000000001
20
-20.863499999999998
0
LWPOLYLINE
5
148
100
AcDbEntity
8
0
100
AcDbPolyline
90
4
70
1
43
0.0
10
-107.34400000000001
20
-35.832999999999998
10
-107.34400000000001
20
-21.833600000000001
10
-93.344700000000032
20
-21.833600000000001
10
-93.344700000000032
20
-35.832999999999998
0
LWPOLYLINE
5
149
100
AcDbEntity
8
0
100
AcDbPolyline
90
4
70
1
43
0.0
10
-85.487099999999998
20
-36.803100000000001
10
-85.487099999999998
20
-20.863499999999998
10
-77.912099999999995
20
-20.863499999999998
10
-77.912099999999995
20
-36.803100000000001
0
LWPOLYLINE
5
150
100
AcDbEntity
8
0
100
AcDbPolyline
90
4
70
1
43
0.0
10
-264.79450000000003
20
-16.783100000000001
10
-278.79450000000003
20
-16.783100000000001
10
-278.79450000000003
20
-2.7836400000000028
10
-264.79450000000003
20
-2.7836399999999983
0
LWPOLYLINE
5
151
100
AcDbEntity
8
0
100
AcDbPolyline
90
4
70
1
43
0.0
10
-305.27460000000008
20
-40.883600000000001
10
-305.27600000000001
20
-54.883099999999999
10
-319.27495768982425
20
-54.883099999999956
10
-319.27530000000007
20
-40.883600000000001
0
LWPOLYLINE
5
152
100
AcDbEntity
8
0
100
AcDbPolyline
90
4
70
1
43
0.0
10
-336.23199999999997
20
-2.7836399999999983
10
-336.23199999999997
20
-16.783100000000001
10
-350.23199999999997
20
-16.783100000000001
10
-350.23199999999997
20
-2.7836400000000028
0
LWPOLYLINE
5
153
100
AcDbEntity
8
0
100
AcDbPolyline
90
4
70
1
43
0.0
10
-296.17560000000009
20
-39.913499999999999
10
-296.17560000000009
20
-55.853099999999998
10
-303.75060000000008
20
-55.853099999999998
10
-303.75060000000008
20
-39.913499999999999
0
LWPOLYLINE
5
154
100
AcDbEntity
8
0
100
AcDbPolyline
90
4
70
1
43
0.0
10
-97.819000000000003
20
-54.883099999999999
10
-97.819000000000003
20
-40.883800000000001
10
-83.819699999999983
20
-40.883800000000001
10
-83.819699999999983
20
-54.883099999999999
0
LWPOLYLINE
5
155
100
AcDbEntity
8
0
100
AcDbPolyline
90
4
70
1
43
0.0
10
-317.18200000000002
20
-2.7836399999999983
10
-317.18200000000002
20
-16.783100000000001
10
-331.18200000000002
20
-16.783100000000001
10
-331.18200000000002
20
-2.7836400000000028
0
LWPOLYLINE
5
156
100
AcDbEntity
8
0
100
AcDbPolyline
90
4
70
1
43
0.0
10
-320.79960000000005
20
-39.913499999999999
10
-320.79960000000005
20
-55.853099999999998
10
-328.3746000000001
20
-55.853099999999998
10
-328.3746000000001
20
-39.913499999999999
0
LWPOLYLINE
5
157
100
AcDbEntity
8
0
100
AcDbPolyline
90
4
70
1
43
0.0
10
-71.62530000000001
20
-54.883099999999999
10
-71.62530000000001
20
-40.883800000000001
10
-57.625999999999991
20
-40.883800000000001
10
-57.625999999999991
20
-54.883099999999999
0
LWPOLYLINE
5
158
100
AcDbEntity
8
0
100
AcDbPolyline
90
4
70
1
43
0.0
10
-231.16900000000001
20
-40.883800000000001
10
-217.16999999999999
20
-40.883800000000001
10
-217.16999999999999
20
-54.883099999999999
10
-231.16900000000001
20
-54.883099999999999
0
LWPOLYLINE
5
159
100
AcDbEntity
8
0
100
AcDbPolyline
90
4
70
1
43
0.0
10
-226.69499999999999
20
-21.833600000000001
10
-226.69499999999999
20
-35.832999999999998
10
-240.69400000000002
20
-35.832999999999998
10
-240.69400000000002
20
-21.833600000000001
0
LWPOLYLINE
5
160
100
AcDbEntity
8
0
100
AcDbPolyline
90
4
70
1
43
0.0
10
-307.65699999999998
20
-78.983800000000002
10
-307.65699999999998
20
-92.983099999999993
10
-321.65700000000004
20
-92.983099999999993
10
-321.65700000000004
20
-78.983800000000002
0
LWPOLYLINE
5
161
100
AcDbEntity
8
0
100
AcDbPolyline
90
4
70
1
43
0.0
10
-116.86900000000001
20
-54.883099999999999
10
-116.86900000000001
20
-40.883800000000001
10
-102.86830000000002
20
-40.883800000000001
10
-102.86830000000002
20
-54.883099999999999
0
LWPOLYLINE
5
162
100
AcDbEntity
8
0
100
AcDbPolyline
90
4
70
1
43
0.0
10
-236.22
20
-40.883800000000001
10
-236.22
20
-54.883099999999999
10
-250.21900000000002
20
-54.883099999999999
10
-250.21900000000002
20
-40.883800000000001
0
LWPOLYLINE
5
163
100
AcDbEntity
8
0
100
AcDbPolyline
90
4
70
1
43
0.0
10
-207.64500000000001
20
-21.833600000000001
10
-207.64500000000001
20
-35.832999999999998
10
-221.64400000000001
20
-35.832999999999998
10
-221.64400000000001
20
-21.833600000000001
0
LWPOLYLINE
5
164
100
AcDbEntity
8
0
100
AcDbPolyline
90
4
70
1
43
0.0
10
-298.55700000000002
20
-78.013599999999997
10
-298.55700000000002
20
-93.953300000000013
10
-306.13200000000001
20
-93.953300000000013
10
-306.13200000000001
20
-78.013599999999997
0
LWPOLYLINE
5
165
100
AcDbEntity
8
0
100
AcDbPolyline
90
4
70
1
43
0.0
10
-202.88200000000003
20
-92.983099999999993
10
-216.88200000000001
20
-92.983099999999993
10
-216.88200000000001
20
-78.983800000000002
10
-202.88200000000003
20
-78.983800000000002
0
LWPOLYLINE
5
166
100
AcDbEntity
8
0
100
AcDbPolyline
90
4
70
1
43
0.0
10
-135.91899999999998
20
-40.883800000000001
10
-121.91800000000001
20
-40.883800000000001
10
-121.91800000000001
20
-54.883099999999999
10
-135.91899999999998
20
-54.883099999999999
0
LWPOLYLINE
5
167
100
AcDbEntity
8
0
100
AcDbPolyline
90
4
70
1
43
0.0
10
-126.39400000000002
20
-35.832999999999998
10
-126.39400000000002
20
-21.833600000000001
10
-112.395
20
-21.833600000000001
10
-112.395
20
-35.832999999999998
0
LWPOLYLINE
5
168
100
AcDbEntity
8
0
100
AcDbPolyline
90
4
70
1
43
0.0
10
-323.18200000000002
20
-78.013599999999997
10
-323.18200000000002
20
-93.953300000000013
10
-330.75700000000006
20
-93.953300000000013
10
-330.75700000000006
20
-78.013599999999997
0
LWPOLYLINE
5
169
100
AcDbEntity
8
0
100
AcDbPolyline
90
4
70
1
43
0.0
10
-64.481499999999983
20
-78.983800000000002
10
-50.482200000000006
20
-78.983800000000002
10
-50.482200000000006
20
-92.983099999999993
10
-64.481499999999983
20
-92.983099999999993
0
LWPOLYLINE
5
170
100
AcDbEntity
8
0
100
AcDbPolyline
90
4
70
1
43
0.0
10
-179.06999999999999
20
-40.883800000000001
10
-179.06999999999999
20
-54.883099999999999
10
-193.06900000000002
20
-54.883099999999999
10
-193.06900000000002
20
-40.883800000000001
0
LWPOLYLINE
5
171
100
AcDbEntity
8
0
100
AcDbPolyline
90
4
70
1
43
0.0
10
-150.495
20
-21.833600000000001
10
-150.495
20
-35.832999999999998
10
-164.494
20
-35.832999999999998
10
-164.494
20
-21.833600000000001
0
LWPOLYLINE
5
172
100
AcDbEntity
8
0
100
AcDbPolyline
90
4
70
1
43
0.0
10
-235.93200000000002
20
-78.983800000000002
10
-221.93200000000004
20
-78.983800000000002
10
-221.93200000000004
20
-92.983099999999993
10
-235.93200000000002
20
-92.983099999999993
0
LWPOLYLINE
5
173
100
AcDbEntity
8
0
100
AcDbPolyline
90
4
70
1
43
0.0
10
-160.02000000000004
20
-40.883800000000001
10
-160.02000000000004
20
-54.883099999999999
10
-174.01900000000001
20
-54.883099999999999
10
-174.01900000000001
20
-40.883800000000001
0
LWPOLYLINE
5
174
100
AcDbEntity
8
0
100
AcDbPolyline
90
4
70
1
43
0.0
10
-131.44499999999999
20
-35.832999999999998
10
-145.44399999999999
20
-35.832999999999998
10
-145.44399999999999
20
-21.833600000000001
10
-131.44499999999999
20
-21.833600000000001
0
LWPOLYLINE
5
175
100
AcDbEntity
8
0
100
AcDbPolyline
90
4
70
1
43
0.0
10
-274.03199999999998
20
-92.983099999999993
10
-274.03199999999998
20
-78.983800000000002
10
-260.03200000000004
20
-78.983800000000002
10
-260.03200000000004
20
-92.983099999999993
0
LWPOLYLINE
5
176
100
AcDbEntity
8
0
100
AcDbPolyline
90
4
70
1
43
0.0
10
-154.96899999999999
20
-54.883099999999999
10
-154.96899999999999
20
-40.883800000000001
10
-140.97000000000003
20
-40.883800000000001
10
-140.97000000000003
20
-54.883099999999999
0
LWPOLYLINE
5
177
100
AcDbEntity
8
0
100
AcDbPolyline
90
4
70
1
43
0.0
10
-317.18200000000002
20
-35.832999999999998
10
-331.18200000000002
20
-35.832999999999998
10
-331.18200000000002
20
-21.833600000000001
10
-317.18200000000002
20
-21.833600000000001
0
LWPOLYLINE
5
178
100
AcDbEntity
8
0
100
AcDbPolyline
90
4
70
1
43
0.0
10
-107.63200000000001
20
-78.983800000000002
10
-107.63200000000001
20
-92.983099999999993
10
-121.63200000000003
20
-92.983099999999993
10
-121.63200000000003
20
-78.983800000000002
0
LWPOLYLINE
5
179
100
AcDbEntity
8
0
100
AcDbPolyline
90
4
70
1
43
0.0
10
-212.11900000000003
20
-40.883800000000001
10
-198.12
20
-40.883800000000001
10
-198.12
20
-54.883099999999999
10
-212.11900000000003
20
-54.883099999999999
0
LWPOLYLINE
5
180
100
AcDbEntity
8
0
100
AcDbPolyline
90
4
70
1
43
0.0
10
-245.745
20
-21.833600000000001
10
-245.745
20
-35.832999999999998
10
-259.74400000000003
20
-35.832999999999998
10
-259.74400000000003
20
-21.833600000000001
0
LWPOLYLINE
5
181
100
AcDbEntity
8
0
100
AcDbPolyline
90
4
70
1
43
0.0
10
-293.08199999999999
20
-78.983800000000002
10
-279.08199999999999
20
-78.983800000000002
10
-279.08199999999999
20
-92.983099999999993
10
-293.08199999999999
20
-92.983099999999993
0
LWPOLYLINE
5
182
100
AcDbEntity
8
0
100
AcDbPolyline
90
4
70
1
43
0.0
10
-264.79500000000002
20
-21.833600000000001
10
-264.79500000000002
20
-35.832999999999998
10
-278.79400000000004
20
-35.832999999999998
10
-278.79400000000004
20
-21.833600000000001
0
LWPOLYLINE
5
183
100
AcDbEntity
8
0
100
AcDbPolyline
90
4
70
1
43
0.0
10
-188.595
20
-35.832999999999998
10
-202.59400000000002
20
-35.832999999999998
10
-202.59400000000002
20
-21.833600000000001
10
-188.595
20
-21.833600000000001
0
LWPOLYLINE
5
184
100
AcDbEntity
8
0
100
AcDbPolyline
90
4
70
1
43
0.0
10
-169.54499999999999
20
-35.832999999999998
10
-183.54400000000001
20
-35.832999999999998
10
-183.54400000000001
20
-21.833600000000001
10
-169.54499999999999
20
-21.833600000000001
0
LWPOLYLINE
5
185
100
AcDbEntity
8
0
100
AcDbPolyline
90
4
70
1
43
0.0
10
-304.98800000000006
20
-21.833600000000001
10
-290.98700000000002
20
-21.833600000000001
10
-290.98700000000002
20
-35.832999999999998
10
-304.98800000000006
20
-35.832999999999998
0
LWPOLYLINE
5
186
100
AcDbEntity
8
0
100
AcDbPolyline
90
4
70
1
43
0.0
10
-350.23199999999997
20
-35.832999999999998
10
-350.23199999999997
20
-21.833600000000001
10
-336.23199999999997
20
-21.833600000000001
10
-336.23199999999997
20
-35.832999999999998
0
LWPOLYLINE
5
187
100
AcDbEntity
8
0
100
AcDbPolyline
90
8
70
1
43
0.0
10
-306.56585000000001
20
-73.93310000000001
10
-308.26585000000006
20
-73.933099999999982
42
-0.41421356237319906
10
-308.46585000000005
20
-73.733099999999993
10
-308.46585000000005
20
-60.133799999999994
42
-0.41421356237319906
10
-308.26585000000006
20
-59.933800000000005
10
-306.56585000000001
20
-59.933800000000005
42
-0.41421356237319906
10
-306.36585000000002
20
-60.133799999999994
10
-306.36585000000002
20
-73.733099999999993
42
-0.41421356237319906
0
LWPOLYLINE
5
188
100
AcDbEntity
8
0
100
AcDbPolyline
90
6
70
1
43
0.0
10
-169.89769318122404
20
-5.7836399999999983
10
-169.89769318122404
20
-2.7836399999999983
10
-162.05583699187906
20
-2.7836399999999983
10
-162.05583699187906
20
-16.783099999999997
10
-165.05583699187906
20
-16.783099999999997
10
-165.05583699187906
20
-5.7836399999999983
0
LWPOLYLINE
5
189
100
AcDbEntity
8
0
100
AcDbPolyline
90
8
70
1
43
0.0
10
-44.525599999999997
20
-2.9836400000000118
10
-44.525599999999983
20
-92.783100000000019
42
-0.414213562373069
10
-44.7256
20
-92.983100000000007
10
-46.425600000000003
20
-92.983100000000022
42
-0.41421356237309503
10
-46.625599999999999
20
-92.78309999999999
10
-46.625599999999999
20
-2.9836400000000118
42
-0.41421356237312429
10
-46.425600000000003
20
-2.7836399999999992
10
-44.7256
20
-2.783640000000005
42
-0.41421356237313728
0
LWPOLYLINE
5
190
100
AcDbEntity
8
0
100
AcDbPolyline
90
8
70
1
43
0.0
10
-88.365849999999995
20
-22.033799999999992
10
-88.365849999999995
20
-35.633099999999985
42
-0.414213562373069
10
-88.565849999999983
20
-35.833100000000002
10
-90.26585
20
-35.833100000000002
42
-0.414213562373069
10
-90.465850000000003
20
-35.633099999999985
10
-90.465850000000003
20
-22.033799999999992
42
-0.41421356237304952
10
-90.26585
20
-21.833799999999997
10
-88.565849999999983
20
-21.833799999999993
42
-0.41421356237304952
0
LWPOLYLINE
5
191
100
AcDbEntity
8
0
100
AcDbPolyline
90
8
70
1
43
0.0
10
-291.19685000000004
20
-41.083799999999997
10
-291.19685000000004
20
-54.683099999999989
42
-0.41421356237321211
10
-291.39685000000003
20
-54.883099999999999
10
-293.09685000000007
20
-54.883099999999992
42
-0.41421356237321211
10
-293.29685000000006
20
-54.683099999999989
10
-293.29685000000006
20
-41.083799999999997
42
-0.41421356237319906
10
-293.09685000000007
20
-40.883800000000001
10
-291.39685000000003
20
-40.883800000000001
42
-0.41421356237319906
0
LWPOLYLINE
5
192
100
AcDbEntity
8
0
100
AcDbPolyline
90
6
70
1
43
0.0
10
-216.60816300812098
20
-16.783099999999997
10
-219.60816300812098
20
-16.783099999999997
10
-219.60816300812098
20
-2.7836399999999983
10
-211.76630681877597
20
-2.7836399999999983
10
-211.76630681877597
20
-5.7836399999999983
10
-216.60816300812098
20
-5.7836399999999983
0
LWPOLYLINE
5
193
100
AcDbEntity
8
0
100
AcDbPolyline
90
8
70
1
43
0.0
10
-73.100850000000023
20
-60.133799999999994
10
-73.100850000000008
20
-73.733099999999993
42
-0.41421356237310802
10
-73.300850000000011
20
-73.93310000000001
10
-75.000850000000014
20
-73.933099999999982
42
-0.41421356237314705
10
-75.200850000000017
20
-73.733099999999993
10
-75.200850000000017
20
-60.133799999999994
42
-0.41421356237309503
10
-75.000850000000014
20
-59.933800000000005
10
-73.300850000000011
20
-59.933800000000005
42
-0.41421356237309503
0
LWPOLYLINE
5
194
100
AcDbEntity
8
0
100
AcDbPolyline
90
8
70
1
43
0.0
10
-76.672850000000011
20
-41.083799999999997
10
-76.672850000000011
20
-54.683099999999989
42
-0.41421356237313406
10
-76.872850000000014
20
-54.883099999999999
10
-78.572850000000017
20
-54.883099999999999
42
-0.41421356237314705
10
-78.77285000000002
20
-54.683099999999989
10
-78.77285000000002
20
-41.083799999999997
42
-0.41421356237309503
10
-78.572850000000017
20
-40.883800000000001
10
-76.872850000000014
20
-40.883800000000001
42
-0.41421356237309503
0
LWPOLYLINE
5
195
100
AcDbEntity
8
0
100
AcDbPolyline
90
8
70
1
43
0.0
10
-284.04085000000003
20
-35.833100000000002
10
-285.74085000000002
20
-35.833100000000016
42
-0.41421356237314055
10
-285.94085000000001
20
-35.633099999999985
10
-285.94085000000001
20
-22.033799999999992
42
-0.41421356237312101
10
-285.74085000000002
20
-21.833799999999997
10
-284.04085000000003
20
-21.833799999999979
42
-0.41421356237312101
10
-283.84085000000005
20
-22.033799999999992
10
-283.84085000000005
20
-35.633099999999985
42
-0.41421356237314055
0
LWPOLYLINE
5
196
100
AcDbEntity
8
0
100
AcDbPolyline
90
6
70
1
43
0.0
10
-44.500000923871994
20
0.40188000637929377
10
-44.500000923871994
20
-1.4576930000000032
10
-79.500000923871994
20
-1.4576930000000032
10
-79.50000092387198
20
0.40188000637929372
42
-0.41421356237307977
10
-79.160000923871991
20
0.74188000637930074
10
-44.84000092387199
20
0.74188000637930962
42
-0.41421356237307977
0
LWPOLYLINE
5
197
100
AcDbEntity
8
0
100
AcDbPolyline
90
6
70
1
43
0.0
10
-278.35308367612805
20
0.40188000637929377
10
-278.35308367612805
20
-1.4576930000000032
10
-313.35308367612805
20
-1.4576930000000032
10
-313.35308367612805
20
0.40188000637929372
42
-0.41421356237306445
10
-313.01308367612808
20
0.74188000637930074
10
-278.69308367612803
20
0.7418800063793185
42
-0.41421356237306445
0
ENDSEC
0
SECTION
2
OBJECTS
0
DICTIONARY
5
C
100
AcDbDictionary
3
ACAD_GROUP
350
D
3
ACAD_MLINESTYLE
350
17
0
DICTIONARY
5
D
100
AcDbDictionary
0
DICTIONARY
5
1A
330
C
100
AcDbDictionary
0
DICTIONARY
5
17
100
AcDbDictionary
0
ENDSEC
0
EOF
